<svg width="108" height="75" viewBox="0 0 108 75" fill="none" xmlns="http://www.w3.org/2000/svg">
<path d="M38.6612 29.0244L37.7045 27.8692L37.7045 27.8692L38.6612 29.0244ZM1.22717 74.1556L0.0934952 56.8722L15.6282 64.5321L1.22717 74.1556ZM107.943 1.66448C107.896 3.16373 107.896 3.16374 107.897 3.16375C107.897 3.16375 107.897 3.16376 107.897 3.16375C107.896 3.16375 107.896 3.16372 107.894 3.16369C107.892 3.16361 107.887 3.16349 107.88 3.16332C107.867 3.16298 107.845 3.16247 107.815 3.16192C107.754 3.16082 107.661 3.15952 107.536 3.15897C107.286 3.15786 106.909 3.15972 106.413 3.17199C105.422 3.19654 103.956 3.26273 102.086 3.43012C98.344 3.76493 92.9851 4.50428 86.5594 6.12329C73.7089 9.36109 56.602 16.1139 39.618 30.1797L37.7045 27.8692C55.0955 13.4664 72.6297 6.53925 85.8264 3.21421C92.4244 1.55181 97.9408 0.789023 101.818 0.442055C103.757 0.268548 105.287 0.198943 106.339 0.17291C106.865 0.159892 107.271 0.157766 107.55 0.158998C107.689 0.159614 107.796 0.161069 107.87 0.162423C107.907 0.1631 107.935 0.163751 107.956 0.16426C107.966 0.164514 107.974 0.164732 107.98 0.1649C107.983 0.164984 107.985 0.165056 107.987 0.165113C107.988 0.165141 107.989 0.165173 107.989 0.165187C107.99 0.165215 107.991 0.165239 107.943 1.66448ZM39.618 30.1797C22.6846 44.2035 13.4487 55.2998 8.45042 62.8716L5.94673 61.2189C11.1378 53.3551 20.5884 42.0442 37.7045 27.8692L39.618 30.1797Z" fill="#2E134E"/>
</svg>
