<svg width="109" height="75" viewBox="0 0 109 75" fill="none" xmlns="http://www.w3.org/2000/svg">
<path d="M69.4846 29.0244L70.4413 27.8692L70.4413 27.8692L69.4846 29.0244ZM106.919 74.1556L108.052 56.8722L92.5176 64.5321L106.919 74.1556ZM0.202451 1.66448C0.250065 3.16373 0.249578 3.16374 0.249224 3.16375C0.249283 3.16375 0.249061 3.16376 0.249178 3.16375C0.249412 3.16375 0.250175 3.16372 0.251465 3.16369C0.254044 3.16361 0.25873 3.16349 0.265506 3.16332C0.279057 3.16298 0.300968 3.16247 0.331102 3.16192C0.391372 3.16082 0.484534 3.15952 0.609509 3.15897C0.859465 3.15786 1.23663 3.15972 1.73238 3.17199C2.72395 3.19654 4.18951 3.26273 6.06011 3.43012C9.80184 3.76493 15.1607 4.50428 21.5864 6.12329C34.4369 9.36109 51.5438 16.1139 68.5278 30.1797L70.4413 27.8692C53.0503 13.4664 35.5161 6.53925 22.3194 3.21421C15.7214 1.55181 10.2051 0.789023 6.32748 0.442055C4.38844 0.268548 2.85831 0.198943 1.80662 0.17291C1.28075 0.159892 0.874387 0.157766 0.596225 0.158998C0.45714 0.159614 0.350094 0.161069 0.276171 0.162423C0.239209 0.1631 0.210527 0.163751 0.19026 0.16426C0.180127 0.164514 0.172097 0.164732 0.166187 0.1649C0.163233 0.164984 0.160808 0.165056 0.158916 0.165113C0.15797 0.165141 0.15695 0.165173 0.156477 0.165187C0.155591 0.165215 0.154838 0.165239 0.202451 1.66448ZM68.5278 30.1797C85.4612 44.2035 94.6971 55.2998 99.6954 62.8716L102.199 61.2189C97.0081 53.3551 87.5574 42.0442 70.4413 27.8692L68.5278 30.1797Z" fill="#2E134E"/>
</svg>
